<svg width="466" height="445" viewBox="0 0 466 445" fill="none" xmlns="http://www.w3.org/2000/svg">
<path d="M240.836 7.31853L318.745 120.997C320.11 122.989 322.121 124.45 324.437 125.133L456.627 164.1C463.029 165.987 465.54 173.715 461.47 179.005L377.431 288.229C375.958 290.143 375.19 292.507 375.256 294.921L379.045 432.682C379.229 439.355 372.655 444.131 366.366 441.894L236.518 395.72C234.242 394.911 231.758 394.911 229.482 395.72L99.634 441.894C93.3449 444.131 86.7711 439.355 86.9547 432.682L90.7436 294.921C90.81 292.507 90.0421 290.143 88.5693 288.229L4.52996 179.005C0.459568 173.715 2.97051 165.987 9.37303 164.1L141.563 125.133C143.879 124.45 145.89 122.989 147.255 120.997L225.164 7.31854C228.937 1.8126 237.063 1.81259 240.836 7.31853Z" fill="#F9B124" stroke="black" stroke-width="5"/>
</svg>
